<svg width="16" height="16" viewBox="0 0 16 16" fill="none" xmlns="http://www.w3.org/2000/svg">
<path d="M8.90189 6.21568C8.90189 5.87998 9.17402 5.60784 9.50972 5.60784V5.60784C9.84542 5.60784 10.1176 5.87998 10.1176 6.21568V11.0784C10.1176 11.4141 9.84542 11.6862 9.50972 11.6862V11.6862C9.17402 11.6862 8.90189 11.4141 8.90189 11.0784V6.21568Z" fill="white"/>
<path d="M9.42832 9.39592C9.1376 9.22807 9.03799 8.85632 9.20584 8.5656C9.37369 8.27487 9.74544 8.17526 10.0362 8.34311L13.4607 10.6334C13.7514 10.8013 13.851 11.173 13.6832 11.4637C13.5153 11.7545 13.1436 11.8541 12.8529 11.6862L9.42832 9.39592Z" fill="white"/>
<path d="M10.1913 9.19627C9.95395 9.43364 9.56909 9.43364 9.33171 9.19627C9.09434 8.95889 9.09434 8.57403 9.33171 8.33665L12.4303 5.62157C12.6677 5.38419 13.0526 5.38419 13.2899 5.62157C13.5273 5.85895 13.5273 6.24381 13.2899 6.48118L10.1913 9.19627Z" fill="white"/>
<path d="M1 6.21568C1 5.87998 1.27214 5.60784 1.60784 5.60784V5.60784C1.94354 5.60784 2.21568 5.87998 2.21568 6.21568V11.0784C2.21568 11.4141 1.94354 11.6862 1.60784 11.6862V11.6862C1.27214 11.6862 1 11.4141 1 11.0784V6.21568Z" fill="white"/>
<path d="M2.21568 6.21568C2.21568 7.02465 3.08728 8.03919 4.64703 8.03919C6.20678 8.03919 7.07839 7.02465 7.07839 6.21568V6.21568C7.07839 5.87998 7.35052 5.60784 7.68622 5.60784V5.60784C8.02192 5.60784 8.29406 5.87998 8.29406 6.21568V6.21568C8.29406 7.89418 6.66123 9.25487 4.64703 9.25487C2.63283 9.25487 1 7.89418 1 6.21568V6.21568C1 5.87998 1.27214 5.60784 1.60784 5.60784V5.60784C1.94354 5.60784 2.21568 5.87998 2.21568 6.21568V6.21568Z" fill="white"/>
<path d="M8.29408 11.0784C8.29408 11.4141 8.02194 11.6862 7.68624 11.6862V11.6862C7.35054 11.6862 7.0784 11.4141 7.0784 11.0784V10.3061C7.25738 10.4098 7.46449 10.4705 7.68624 10.4705C7.90799 10.4705 8.11509 10.4098 8.29408 10.3061V11.0784Z" fill="white"/>
<circle cx="7.68624" cy="9.25487" r="0.607839" fill="white"/>
</svg>
