<svg width="64" height="32" viewBox="0 0 64 32" fill="none" xmlns="http://www.w3.org/2000/svg">
<path d="M3.21454 6C3.21454 4.52724 4.40845 3.33334 5.88121 3.33334V3.33334C7.35396 3.33334 8.54787 4.52724 8.54787 6V27.3333C8.54787 28.8061 7.35396 30 5.88121 30V30C4.40845 30 3.21454 28.8061 3.21454 27.3333V6Z" fill="black"/>
<path d="M37.8812 6C37.8812 4.52724 39.0751 3.33334 40.5479 3.33334V3.33334C42.0206 3.33334 43.2145 4.52724 43.2145 6V27.3333C43.2145 28.8061 42.0206 30 40.5479 30V30C39.0751 30 37.8812 28.8061 37.8812 27.3333V6Z" fill="black"/>
<path d="M40.1906 19.9521C38.9152 19.2158 38.4782 17.5849 39.2145 16.3094C39.9509 15.034 41.5818 14.597 42.8573 15.3333L57.8812 25.3812C59.1566 26.1176 59.5936 27.7485 58.8573 29.0239C58.1209 30.2994 56.49 30.7364 55.2145 30L40.1906 19.9521Z" fill="black"/>
<path d="M43.5381 19.0762C42.4967 20.1176 40.8082 20.1176 39.7668 19.0762C38.7254 18.0348 38.7254 16.3464 39.7668 15.305L53.3608 3.39356C54.4022 2.35216 56.0906 2.35216 57.132 3.39356C58.1734 4.43495 58.1734 6.12339 57.132 7.16479L43.5381 19.0762Z" fill="black"/>
<path d="M8.54787 6C8.54787 9.5491 12.3717 14 19.2145 14C26.0574 14 29.8812 9.5491 29.8812 6V6C29.8812 4.52724 31.0751 3.33334 32.5479 3.33334V3.33334C34.0206 3.33334 35.2145 4.52724 35.2145 6V6C35.2145 13.3638 28.0511 19.3333 19.2145 19.3333C10.378 19.3333 3.21454 13.3638 3.21454 6V6C3.21454 4.52724 4.40845 3.33334 5.88121 3.33334V3.33334C7.35396 3.33334 8.54787 4.52724 8.54787 6V6Z" fill="black"/>
<circle cx="32.5479" cy="19.3333" r="2.66667" fill="black"/>
<path d="M35.2145 27.3333C35.2145 28.8061 34.0206 30 32.5479 30V30C31.0751 30 29.8812 28.8061 29.8812 27.3333V23.9453C30.6664 24.4003 31.575 24.6667 32.5479 24.6667C33.5207 24.6667 34.4293 24.4003 35.2145 23.9453V27.3333Z" fill="black"/>
</svg>
